<?xml version="1.0" encoding="UTF-8" standalone="no"?>
<svg
   version="1.1"
   preserveAspectRatio="none"
   x="0px"
   y="0px"
   width="320"
   height="270"
   viewBox="0 0 320 270"
   id="svg26"
   sodipodi:docname="logo-blue.svg"
   inkscape:version="1.1.1 (c3084ef, 2021-09-22)"
   xmlns:inkscape="http://www.inkscape.org/namespaces/inkscape"
   xmlns:sodipodi="http://sodipodi.sourceforge.net/DTD/sodipodi-0.dtd"
   xmlns:xlink="http://www.w3.org/1999/xlink"
   xmlns="http://www.w3.org/2000/svg"
   xmlns:svg="http://www.w3.org/2000/svg"
   xmlns:rdf="http://www.w3.org/1999/02/22-rdf-syntax-ns#"
   xmlns:cc="http://creativecommons.org/ns#"
   xmlns:dc="http://purl.org/dc/elements/1.1/">
  <metadata
     id="metadata30">
    <rdf:RDF>
      <cc:Work
         rdf:about="">
        <dc:format>image/svg+xml</dc:format>
        <dc:type
           rdf:resource="http://purl.org/dc/dcmitype/StillImage" />
      </cc:Work>
    </rdf:RDF>
  </metadata>
  <sodipodi:namedview
     pagecolor="#ffffff"
     bordercolor="#666666"
     borderopacity="1"
     objecttolerance="10"
     gridtolerance="10"
     guidetolerance="10"
     inkscape:pageopacity="0"
     inkscape:pageshadow="2"
     inkscape:window-width="1610"
     inkscape:window-height="997"
     id="namedview28"
     showgrid="false"
     fit-margin-top="5"
     fit-margin-left="5"
     fit-margin-bottom="5"
     fit-margin-right="5"
     inkscape:zoom="1.432803"
     inkscape:cx="170.29557"
     inkscape:cy="163.66521"
     inkscape:window-x="0"
     inkscape:window-y="25"
     inkscape:window-maximized="0"
     inkscape:current-layer="svg26"
     inkscape:pagecheckerboard="0"
     height="320px" />
  <defs
     id="defs14">
    <radialGradient
       id="Gradient_1"
       gradientUnits="userSpaceOnUse"
       cx="0"
       cy="0"
       r="192.02499"
       fx="0"
       fy="0"
       gradientTransform="translate(855.65,477.25)"
       spreadMethod="pad">
      <stop
         offset="0%"
         stop-color="#02BFEC"
         id="stop2" />
      <stop
         offset="100%"
         stop-color="#0092DC"
         id="stop4" />
    </radialGradient>
    <g
       id="Layer1_0_FILL">
      <path
         d="m 736.9,710.4 v 2.35 h 6.25 q -0.85,0.55 -1.75,1.2 -0.85,0.65 -1.7,1.25 -0.85,0.65 -1.6,1.25 -0.7,0.6 -1.2,1.15 v 1.9 h 10.6 v -2.35 h -6.95 q 1.55,-1.35 3.35,-2.55 1.75,-1.2 3.6,-2.2 v -2 h -10.6 m 5.3,-11.85 q -1.45,0 -2.5,0.45 -1,0.45 -1.65,1.25 -0.7,0.8 -1,1.9 -0.3,1.1 -0.3,2.45 0,0.65 0.05,1.55 0.05,0.9 0.2,1.7 h 10.35 q 0.2,-0.8 0.25,-1.65 0.05,-0.85 0.05,-1.5 0,-1.4 -0.35,-2.55 -0.35,-1.15 -1,-1.95 -0.7,-0.75 -1.7,-1.2 -1.05,-0.45 -2.4,-0.45 m -2.55,3.3 q 0.85,-0.8 2.55,-0.8 1.55,0 2.5,0.85 0.9,0.85 0.9,2.65 0,0.3 0,0.55 -0.05,0.2 -0.05,0.4 h -6.7 q -0.05,-0.25 -0.05,-0.5 0,-0.25 0,-0.5 0,-1.8 0.85,-2.65 m 7.85,19 q -1.7,0.6 -3.15,1.15 -1.45,0.5 -2.75,1.05 -1.3,0.5 -2.45,1 -1.15,0.5 -2.25,1.05 v 2.25 q 1.1,0.55 2.25,1.05 1.15,0.5 2.45,1 1.3,0.5 2.75,1.05 1.45,0.55 3.15,1.15 v -2.5 q -0.55,-0.15 -1.15,-0.35 -0.55,-0.2 -1.15,-0.4 v -4.15 q 0.6,-0.2 1.15,-0.4 0.6,-0.2 1.15,-0.4 v -2.55 m -5.5,4.4 q 0.6,-0.25 1.3,-0.5 v 3.05 q -0.7,-0.25 -1.3,-0.5 -0.65,-0.25 -1.15,-0.45 -0.55,-0.2 -0.95,-0.35 -0.4,-0.15 -0.6,-0.2 0.2,-0.1 0.6,-0.25 0.4,-0.15 0.95,-0.4 0.5,-0.2 1.15,-0.4 m 261.85,-27.65 h -7.65 v 20.25 q -1.8,-2.7 -3.85,-5.6 -2,-2.9 -4.05,-5.55 -2.05,-2.7 -4.05,-5.1 -1.95,-2.4 -3.6,-4 h -6.3 v 34.3 H 982 v -22.5 q 4.35,5.1 8.2,10.85 3.85,5.75 7.2,11.65 h 6.45 v -34.3 m 29.15,6.55 q 2.05,0.65 3.65,1.45 l 2.25,-6.15 q -0.4,-0.3 -1.3,-0.7 -0.95,-0.5 -2.35,-0.9 -1.4,-0.4 -3.35,-0.75 -2,-0.3 -4.4,-0.3 -3.55,0 -6.7,1.2 -3.15,1.15 -5.5,3.5 -2.3,2.3 -3.65,5.6 -1.35,3.3 -1.35,7.6 0,4.25 1.25,7.6 1.2,3.3 3.45,5.6 2.2,2.25 5.35,3.45 3.15,1.2 7,1.2 4.5,0 7.6,-0.65 3.05,-0.6 4.45,-1.15 v -17 h -7.75 v 11.95 q -0.7,0.15 -1.6,0.2 -0.9,0.05 -2.2,0.05 -2.4,0 -4.15,-0.8 -1.8,-0.8 -3,-2.3 -1.15,-1.5 -1.75,-3.55 -0.6,-2.05 -0.6,-4.6 0,-5.2 2.4,-8.2 2.4,-2.95 7.8,-2.95 2.4,0 4.45,0.6 m -22.75,-29.6 q 0,4.25 1.25,7.6 1.2,3.3 3.45,5.6 2.2,2.25 5.35,3.45 3.15,1.2 7,1.2 4.5,0 7.6,-0.65 3.05,-0.6 4.45,-1.15 v -17 h -7.75 v 11.95 q -0.7,0.15 -1.6,0.2 -0.9,0.05 -2.2,0.05 -2.4,0 -4.15,-0.8 -1.8,-0.8 -3,-2.3 -1.15,-1.5 -1.75,-3.55 -0.6,-2.05 -0.6,-4.6 0,-5.2 2.4,-8.2 2.4,-2.95 7.8,-2.95 2.4,0 4.45,0.6 2.05,0.65 3.65,1.45 l 2.25,-6.15 q -0.4,-0.3 -1.3,-0.7 -0.95,-0.5 -2.35,-0.9 -1.4,-0.4 -3.35,-0.75 -2,-0.3 -4.4,-0.3 -3.55,0 -6.7,1.2 -3.15,1.15 -5.5,3.5 -2.3,2.3 -3.65,5.6 -1.35,3.3 -1.35,7.6 M 865.3,657.05 q -2.1,0 -4.8,0.2 -2.7,0.2 -5.25,0.7 v 33.8 H 863 v -12.5 h 3.8 q 1,1.15 2,2.6 0.95,1.5 2,3.1 1,1.65 1.95,3.4 1,1.7 1.95,3.4 h 8.65 q -0.9,-1.9 -1.95,-3.85 -1.05,-1.95 -2.15,-3.75 -1.1,-1.8 -2.25,-3.45 -1.15,-1.65 -2.2,-2.95 3.15,-1.3 4.8,-3.55 1.65,-2.25 1.65,-5.9 0,-5.75 -4.1,-8.5 -4.1,-2.75 -11.85,-2.75 m -2.3,6.75 q 0.6,-0.05 1.25,-0.1 0.65,-0.05 1.5,-0.05 3.75,0 5.6,1.05 1.9,1.05 1.9,3.6 0,2.6 -1.85,3.7 -1.85,1.1 -6.25,1.1 H 863 v -9.3 m -41.55,-6.35 q -1.7,3.55 -3.35,7.3 -1.6,3.7 -3.25,7.9 -1.65,4.15 -3.4,8.85 -1.75,4.7 -3.65,10.25 h 8 q 0.55,-1.8 1.2,-3.65 0.7,-1.9 1.35,-3.75 h 13.35 q 0.65,1.85 1.3,3.75 0.7,1.85 1.25,3.65 h 8.25 q -1.95,-5.55 -3.65,-10.25 -1.75,-4.7 -3.4,-8.85 -1.65,-4.2 -3.3,-7.9 -1.6,-3.75 -3.3,-7.3 h -7.4 m 3.5,7.75 q 0.3,0.75 0.8,2.05 0.5,1.25 1.2,2.95 0.65,1.7 1.4,3.75 0.75,2 1.55,4.25 h -9.8 q 0.8,-2.25 1.6,-4.25 0.75,-2.05 1.4,-3.75 0.65,-1.7 1.1,-2.95 0.55,-1.3 0.75,-2.05 m 141.1,-7.75 v 34.3 h 7.65 v -22.5 q 4.35,5.1 8.2,10.85 3.85,5.75 7.2,11.65 h 6.45 v -34.3 h -7.65 v 20.25 q -1.8,-2.7 -3.85,-5.6 -2,-2.9 -4.05,-5.55 -2.05,-2.7 -4.05,-5.1 -1.95,-2.4 -3.6,-4 h -6.3 m -16.1,0 h -7.75 v 34.3 h 7.75 v -34.3 m -23.95,0 h -7.65 v 20.25 q -1.8,-2.7 -3.85,-5.6 -2,-2.9 -4.05,-5.55 -2.05,-2.7 -4.05,-5.1 -1.95,-2.4 -3.6,-4 h -6.3 v 34.3 h 7.65 v -22.5 q 4.35,5.1 8.2,10.85 3.85,5.75 7.2,11.65 H 926 v -34.3 m -129.85,6.5 v -6.5 H 773 v 34.3 h 24.3 v -6.5 H 780.75 V 677 h 13.7 v -6.35 h -13.7 v -6.7 h 15.4 m -36.25,27.8 v -6.6 h -15.2 v -27.7 h -7.75 v 34.3 h 22.95 m 206.6,5.85 h -7.75 v 34.3 h 7.75 v -34.3 m -22.1,34.3 h 6.45 v -34.3 h -7.65 v 20.25 q -1.8,-2.7 -3.85,-5.6 -2,-2.9 -4.05,-5.55 -2.05,-2.7 -4.05,-5.1 -1.95,-2.4 -3.6,-4 h -6.3 v 34.3 H 929 v -22.5 q 4.35,5.1 8.2,10.85 3.85,5.75 7.2,11.65 m -58.55,-30.55 q -2.35,2.3 -3.75,5.65 -1.4,3.3 -1.4,7.7 0,4.45 1.35,7.75 1.35,3.35 3.65,5.6 2.35,2.25 5.5,3.4 3.1,1.15 6.6,1.15 3.6,0 6.8,-1.15 3.1,-1.15 5.4,-3.4 2.25,-2.25 3.55,-5.6 1.35,-3.3 1.35,-7.75 0,-4.4 -1.35,-7.7 -1.35,-3.35 -3.65,-5.65 -2.35,-2.3 -5.45,-3.4 -3.15,-1.15 -6.65,-1.15 -3.4,0 -6.5,1.15 -3.1,1.1 -5.45,3.4 m 2.85,13.35 q 0,-2.45 0.6,-4.5 0.65,-2.05 1.8,-3.5 1.15,-1.5 2.85,-2.3 1.7,-0.8 3.85,-0.8 2.15,0 3.85,0.75 1.7,0.8 2.85,2.25 1.2,1.5 1.8,3.55 0.6,2.05 0.6,4.55 0,2.55 -0.6,4.6 -0.6,2 -1.8,3.45 -1.15,1.5 -2.85,2.25 -1.7,0.8 -3.85,0.8 -2.15,0 -3.85,-0.8 -1.7,-0.75 -2.85,-2.25 -1.15,-1.45 -1.8,-3.45 -0.6,-2.05 -0.6,-4.6 m -16.25,-9.45 2.25,-6.1 q -1.65,-0.9 -4.15,-1.6 -2.55,-0.75 -6,-0.75 -2.9,0 -5.25,0.7 -2.35,0.7 -3.95,2.1 -1.65,1.3 -2.55,3.2 -0.9,1.95 -0.9,4.3 0,2.35 0.85,4.05 0.85,1.65 2.2,2.8 1.35,1.15 3,1.9 1.7,0.8 3.35,1.4 3.9,1.3 5.5,2.4 1.55,1.1 1.55,2.8 0,0.8 -0.25,1.4 -0.25,0.7 -0.9,1.15 -0.6,0.45 -1.65,0.75 -1.1,0.25 -2.75,0.25 -3.25,0 -5.5,-0.65 -2.25,-0.7 -3.8,-1.5 l -2.15,6.1 q 0.65,0.45 1.7,0.85 1,0.45 2.4,0.85 1.4,0.4 3.25,0.65 1.85,0.3 4.1,0.3 6.8,0 10.15,-2.65 3.4,-2.65 3.4,-7.45 0,-2.5 -0.65,-4.2 -0.65,-1.75 -2,-3.05 -1.3,-1.25 -3.25,-2.25 -2,-0.95 -4.65,-1.95 -1.3,-0.45 -2.35,-0.85 -1.1,-0.4 -1.9,-0.95 -0.8,-0.5 -1.25,-1.15 -0.45,-0.65 -0.45,-1.6 0,-1.6 1.2,-2.35 1.2,-0.8 4,-0.8 2.45,0 4.2,0.6 1.8,0.55 3.2,1.3 m -30.55,7.55 q -1.65,-4.2 -3.3,-7.9 -1.6,-3.75 -3.3,-7.3 h -7.4 q -1.7,3.55 -3.35,7.3 -1.6,3.7 -3.25,7.9 -1.65,4.15 -3.4,8.85 -1.75,4.7 -3.65,10.25 h 8 q 0.55,-1.8 1.2,-3.65 0.7,-1.9 1.35,-3.75 h 13.35 q 0.65,1.85 1.3,3.75 0.7,1.85 1.25,3.65 h 8.25 q -1.95,-5.55 -3.65,-10.25 -1.75,-4.7 -3.4,-8.85 m -10.5,-7.45 q 0.3,0.75 0.8,2.05 0.5,1.25 1.2,2.95 0.65,1.7 1.4,3.75 0.75,2 1.55,4.25 h -9.8 q 0.8,-2.25 1.6,-4.25 0.75,-2.05 1.4,-3.75 0.65,-1.7 1.1,-2.95 0.55,-1.3 0.75,-2.05 m -35.95,11.8 h 13.7 v -6.35 h -13.7 v -6.7 h 15.4 v -6.5 H 787.7 v 34.3 H 812 v -6.5 h -16.55 v -8.25 m -14.75,-8.7 q 0,-5.75 -4.1,-8.5 -4.1,-2.75 -11.85,-2.75 -2.1,0 -4.8,0.2 -2.7,0.2 -5.25,0.7 v 33.8 h 7.75 v -12.5 h 3.8 q 1,1.15 2,2.6 0.95,1.5 2,3.1 1,1.65 1.95,3.4 1,1.7 1.95,3.4 h 8.65 q -0.9,-1.9 -1.95,-3.85 -1.05,-1.95 -2.15,-3.75 -1.1,-1.8 -2.25,-3.45 -1.15,-1.65 -2.2,-2.95 3.15,-1.3 4.8,-3.55 1.65,-2.25 1.65,-5.9 m -9.9,-3.6 q 1.9,1.05 1.9,3.6 0,2.6 -1.85,3.7 -1.85,1.1 -6.25,1.1 h -2.15 v -9.3 q 0.6,-0.05 1.25,-0.1 0.65,-0.05 1.5,-0.05 3.75,0 5.6,1.05 z"
         id="path7"
         inkscape:connector-curvature="0"
         style="fill:#0092dc;stroke:none" />
    </g>
    <g
       id="Layer0_0_FILL">
      <path
         d="m 878.15,498.95 v -0.05 l -31.05,25.95 37.3,61.45 h 0.05 l 38.8,63.85 h 46.85 l -91.95,-151.2 m 68.9,-8.8 h -46.9 l -9,14.8 23.45,38.55 32.45,-53.35 M 859.4,391.7 h -9.65 q -14.72031,1.38926 -26.8,11.5 -15.95,13.35 -17.65,34.05 -0.19199,2.25176 -0.2,4.45 -0.0176,4.09258 0.6,8 1.27891,8.20859 5.35,15.6 0.4,0.85 0.9,1.65 l 5.35,8.85 31.1,-26.05 v -0.05 q -1.9625,-3.00234 -2.1,-3.25 -1.28809,-2.20234 -1.25,-4.75 0.0324,-0.51777 0.1,-1.05 v -0.05 q 0.35,-4.1 3.5,-6.75 3.15,-2.7 7.3,-2.3 h 0.1 q 4.1,0.35 6.75,3.5 0.6875,0.83008 1.15,1.7 1.25332,2.28301 1.2,4.95 -0.0201,0.34668 -0.05,0.7 v 0.05 q -0.3875,3.92344 -3.3,6.5 l -55.35,46.35 q -0.1123,0.12207 -0.25,0.25 -7.26133,6.52129 -11.85,14.35 -6.45723,11.08633 -7.6,24.8 v 0.05 q -1.25156,14.02266 3.4,26.25 v 0 q 1.58691,4.15273 3.85,8.05 0.16816,0.34141 0.35,0.65 2.67129,4.54121 6.25,8.8 7.12187,8.51055 16,13.65 8.11738,4.69063 17.7,6.55 3.35977,0.68457 6.9,1 19.09414,1.68945 34.85,-7.55 0.98437,-0.55996 1.9,-1.15 l -20.8,-34.25 q -5.58516,3.64414 -12.45,3.1 -8.2,-0.75 -13.45,-7.05 -4.10449,-4.90996 -4.65,-10.9 -0.16289,-1.79102 0,-3.7 v -0.05 q 0.67813,-7.89531 6.65,-13.15 l 9.25,-7.75 v 0 l 31.05,-25.95 v 0 l 13.65,-11.4 0.05,-0.05 q 14.43418,-12.12656 17.25,-30.15 0.28379,-1.89238 0.45,-3.85 v 0.1 q 0.18691,-2.15059 0.2,-4.25 0.004,-0.35059 0,-0.7 7.8e-4,-10.31504 -4,-19.4 -0.8627,-1.98086 -1.95,-3.95 -1.91133,-3.41797 -4.45,-6.7 -0.62285,-0.79063 -1.3,-1.6 Q 880.1,393.4 859.4,391.7 m 0.05,171.45 -0.15,0.05 0.05,-0.05 q 0.05,0 0.1,0 m -73.1,-171 h -50 v 258 H 913.9 l -30.35,-50 h -5.35 q -17.16563,9.34336 -37.7,7.55 -5.48691,-0.49961 -10.6,-1.75 -8.19004,-1.94922 -15.4,-5.8 H 786.35 V 571.8 q -1.45898,-2.64004 -2.65,-5.4 h -0.05 q -6.28906,-14.67324 -4.9,-31.65 v -0.1 q 0,-0.15 0.05,-0.3 -0.05,-0.1 0,-0.15 v -0.15 q 0.84082,-10.21699 4.25,-19.15 v 0 q 1.44531,-3.65566 3.3,-7.1 V 392.15 m 189,-0.35 q -1.66875,-0.005 -3.35,0 l -12,-0.1 -29.95,49.3 v 0.7 h 42.3 q 1.40937,0.0375 2.75,0.2 l 0.25,0.05 q 7.75,1.05 13.55,6.8 l 0.05,0.05 q 7.05,7.1 7.05,17.15 0,10 -7.05,17.1 v 0.05 q -6.82676,6.73125 -16.3,7.05 H 956.4 l -37.1,61.05 60.15,98.95 h 58.5 l -66.85,-110 h 3.15 v -0.05 q 29.1428,-0.84063 50,-21.65 h 0.05 q 21.7,-21.75 21.7,-52.5 0,-30.75 -21.7,-52.5 l -0.05,-0.05 Q 1003.8,393 975.35,391.8 Z"
         id="path10"
         inkscape:connector-curvature="0"
         style="fill:url(#Gradient_1);stroke:none" />
    </g>
    <path
       id="Layer0_0_1_STROKES"
       stroke-miterlimit="3"
       d="m 904.95,445.85 v 0.1"
       inkscape:connector-curvature="0"
       style="fill:none;stroke:#0092dc;stroke-width:1;stroke-linecap:butt;stroke-linejoin:miter;stroke-miterlimit:3" />
  </defs>
  <g
     id="g24"
     transform="translate(-731.35,-386.7)">
    <use
       xlink:href="#Layer0_0_1_STROKES"
       id="use22"
       x="0"
       y="0"
       width="100%"
       height="100%" />
  </g>
  <use
     xlink:href="#Layer0_0_FILL"
     id="use20"
     x="0"
     y="0"
     width="100%"
     height="100%"
     transform="translate(-731.35,-386.7)" />
</svg>
